<?xml version="1.0" encoding="UTF-8" standalone="no"?>
<!-- Created with Inkscape (http://www.inkscape.org/) -->

<svg
   version="1.1"
   id="svg1"
   viewBox="0 0 889.59998 615.20001"
   xmlns="http://www.w3.org/2000/svg">
  <defs
     id="defs1" />
  <g
     id="g1">
    <path
       d="m 383.99999,516.80001 v -97.6 h 16 16 v 81.6 81.6 h 197.99999 198 v -88.89309 l 0,-88.89309 3.17127,2.86506 c 1.74421,1.57578 5.01873,3.80123 7.27671,4.94543 4.6788,2.37093 14.91006,5.17569 18.87999,5.17569 h 2.67203 v 98.4 98.4 h -230 -229.99999 z M 128.4,438.37859 c -7.53052,-1.13647 -17.64524,-4.70962 -22.8446,-8.07012 -2.61547,-1.69046 -4.7554,-3.23986 -4.7554,-3.44309 0,-0.20324 2.74422,-5.39466 6.09828,-11.53648 l 6.09828,-11.16696 4.84246,3.12984 c 6.21894,4.01949 11.36005,5.51256 18.90618,5.49066 9.35207,-0.0271 14.05417,-2.75414 19.50363,-11.31123 2.58797,-4.06379 6.15117,-11.40085 6.15117,-12.666 0,-0.32527 -13.14,-30.73531 -29.2,-67.57787 -16.06,-36.84255 -29.2,-67.13811 -29.2,-67.32346 0,-0.18535 7.23135,-0.23955 16.06967,-0.12044 l 16.06967,0.21657 20.93033,49.3771 c 11.51168,27.1574 21.23068,49.28729 21.59777,49.17752 0.3671,-0.10978 10.15076,-22.32947 21.74148,-49.37711 l 21.07403,-49.17751 14.95102,-0.218 c 11.84765,-0.17274 14.86707,-0.007 14.5466,0.8 -5.48861,13.81592 -67.17202,154.44762 -69.51326,158.48296 -4.41786,7.61456 -14.79047,17.97999 -20.81787,20.80347 -8.65443,4.05408 -22.46931,5.98612 -32.24944,4.51015 z M 516.39999,388.021 c -22.46398,-4.87183 -38.42856,-16.82544 -47.57343,-35.62099 -5.66189,-11.63697 -6.7805,-16.79502 -6.76624,-31.2 0.0195,-19.64159 4.49228,-32.80642 15.63656,-46.02288 7.11335,-8.436 21.0357,-17.00995 33.10311,-20.38623 7.43378,-2.07986 27.22232,-2.53595 35.69186,-0.82263 21.47361,4.34394 38.93607,18.4811 46.76271,37.8579 4.1079,10.17014 6.20346,23.46398 5.35834,33.99236 l -0.43197,5.38148 h -52.75404 -52.75403 l 0.51666,2.6 c 1.90161,9.5694 10.68013,20.18548 20.55254,24.85468 8.01957,3.79289 13.14954,4.85333 23.45793,4.8491 13.373,-0.005 23.55529,-3.41412 31.72275,-10.61953 2.04752,-1.80634 3.91451,-3.28425 4.14887,-3.28425 0.23436,0 4.10668,4.21466 8.60515,9.36592 l 8.17904,9.36592 -5.21605,4.83408 c -6.30276,5.84121 -15.34,10.7802 -25.03977,13.68462 -6.41311,1.9203 -8.77376,2.18739 -21.59999,2.44392 -12.0471,0.24095 -15.57645,0.0329 -21.6,-1.27347 z m 52.76482,-80.62099 c -0.94799,-5.60197 -5.69168,-14.4312 -10.14736,-18.88688 -5.50415,-5.50415 -14.21888,-9.82981 -21.95511,-10.89767 -6.62272,-0.91416 -15.79768,-0.0102 -21.16681,2.08538 -11.4645,4.47468 -19.94456,14.32344 -22.7595,26.43294 l -0.99172,4.26623 h 38.76409 38.76409 z m 118.83517,80.65118 c -26.29901,-5.55464 -45.6831,-24.04589 -52.46789,-50.05118 -2.16963,-8.31596 -1.97616,-26.50465 0.37443,-35.2 6.83886,-25.29854 26.17745,-43.06177 52.88544,-48.5773 6.30746,-1.30257 9.72775,-1.50526 20.00802,-1.1857 14.45239,0.44925 19.64742,1.58976 30,6.58621 7.91806,3.82148 13.51061,8.07929 18.4,14.00861 3.30896,4.01276 6.50432,9.34305 5.92855,9.88963 -0.8867,0.84175 -22.59416,13.27855 -23.17667,13.27855 -0.36981,0 -1.00124,-0.58765 -1.40319,-1.30589 -1.722,-3.07706 -9.44427,-9.93533 -13.80251,-12.25825 -11.45018,-6.10289 -26.18829,-6.06189 -38.56984,0.10729 -9.02386,4.49619 -15.91465,12.91041 -19.18269,23.42363 -2.46326,7.92429 -2.46326,20.94215 0,28.86644 5.36389,17.25555 19.78776,27.54779 38.60635,27.54779 8.05434,0 13.25727,-1.25172 19.88385,-4.78365 4.48138,-2.38855 11.49674,-8.78363 13.4193,-12.2328 0.72437,-1.29954 1.85553,-0.81932 11.94848,5.07261 6.1316,3.57943 11.46654,6.81155 11.85542,7.18249 1.21913,1.1629 -3.49742,8.12322 -9.47355,13.98034 -8.87307,8.69637 -18.35948,13.53489 -31.50387,16.06848 -8.2478,1.58977 -25.22122,1.37977 -33.72963,-0.4173 z m 154.56137,-0.0689 c -15.48349,-4.05642 -24.1982,-12.88642 -28.21372,-28.58695 -1.41969,-5.55093 -1.54765,-9.08338 -1.54765,-42.72329 v -36.67203 h -11.2 -11.2 v -12.4 -12.4 h 11.2 11.2 V 239.6 224 h 15.6 15.6 v 15.6 15.60001 h 18 18 v 12.4 12.4 h -18 -18 v 35.44292 35.44293 l 2.02648,4.06663 c 3.68443,7.39368 11.36497,10.68906 21.2156,9.10266 2.80616,-0.45192 6.83445,-1.67899 8.95175,-2.72684 2.11731,-1.04784 4.00748,-1.64978 4.20039,-1.33765 0.19291,0.31213 2.14989,5.18192 4.34884,10.82175 4.53682,11.63594 4.72615,10.69227 -2.88405,14.37482 -6.54504,3.16713 -13.25532,4.3925 -23.85901,4.3569 -6.79553,-0.0228 -11.30566,-0.47907 -15.43863,-1.56185 z M 0.79999998,320.80001 v -67.2 H 15.6 30.399999 v 9.68335 9.68336 l 5.468605,-5.52312 c 8.862596,-8.95093 19.756284,-13.46539 34.731394,-14.39306 l 7.8,-0.4832 v 14.40605 14.40604 l -7.8,0.0575 c -19.809886,0.14602 -33.617276,10.78634 -37.447798,28.85822 -0.869826,4.10372 -1.127564,13.50133 -1.13831,41.50486 l -0.01389,36.2 H 16.4 0.79999998 Z m 293.59999002,13.2 v -54 h -10.8 -10.8 v -12.4 -12.4 h 10.67808 10.67808 L 294.68587,246.2 c 0.98226,-16.6887 4.09704,-25.01435 12.49958,-33.4107 6.15789,-6.15336 11.24162,-9.04786 19.68289,-11.20678 7.60663,-1.94545 21.62803,-2.12924 29.8877,-0.39176 5.49018,1.15489 13.64096,4.6326 13.64686,5.82272 0.005,1.03318 -7.44001,21.35851 -8.09981,22.11262 -0.37426,0.42775 -1.09588,0.34383 -1.75627,-0.20424 -2.30237,-1.9108 -10.50318,-4.12176 -15.27207,-4.11739 -6.49454,0.006 -10.33298,1.16873 -13.74376,4.16343 -4.85971,4.26689 -6.2082,7.88033 -6.58006,17.6321 l -0.32794,8.60001 h 18.4885 18.4885 v 12.4 12.4 h -18 -18 v 54 54 h -15.6 -15.6 z m 90.4,-39.2 V 201.6 h 15.6 15.6 v 93.20001 93.2 h -15.6 -15.6 z m 256.13784,-76.81693 c -0.69968,-1.53564 -0.93785,-25.31076 -0.93785,-93.62072 V 32.800001 h -111.99999 -112 V 101.6 170.4 h -16 -16 V 85.600002 0.80000002 h 229.99999 230 V 97.200002 193.6 h -16 -16 V 113.2 32.800001 h -28 -28 V 124.8526 c 0,89.33774 -0.14266,95.1474 -2.33638,95.1474 -0.66235,0 -14.95721,-17.36469 -40.01145,-48.60393 C 702.22092,157.14288 701.11302,156 698.7272,156 c -2.14721,0 -3.04534,0.63392 -5.38383,3.8 -4.68968,6.34937 -49.68193,59.65842 -50.60554,59.95996 -0.47418,0.15481 -1.28418,-0.64478 -1.8,-1.77688 z"
       id="path1" />
  </g>
</svg>
