<?xml version="1.0" encoding="UTF-8" standalone="no"?>
<!-- Created with Inkscape (http://www.inkscape.org/) -->

<svg
   version="1.1"
   id="svg1"
   width="496.54489"
   height="721.06921"
   viewBox="0 0 496.54489 721.06921"
   xmlns="http://www.w3.org/2000/svg">
  <defs
     id="defs1" />
  <g
     id="g1"
     transform="translate(-147.04018,-46.117717)">
    <path
       style="stroke-width:1.32273"
       d="m 361.99515,765.9861 c -55.64284,-7.61029 -104.29992,-31.10248 -143.48017,-69.27383 -31.73684,-30.91962 -54.08461,-69.10665 -64.93604,-110.96033 -6.90256,-26.62296 -6.53536,-16.55409 -6.53536,-179.20068 0,-162.6466 -0.3672,-152.57774 6.53536,-179.20069 22.19229,-85.59499 92.17514,-153.436 180.47251,-174.949091 22.56917,-5.498834 30.22153,-6.283762 61.26119,-6.283762 31.03966,0 38.69202,0.784928 61.26119,6.283762 88.29737,21.513091 158.28021,89.354101 180.47251,174.949091 6.90255,26.62295 6.53535,16.55409 6.53535,179.20069 0,162.64659 0.3672,152.57772 -6.53535,179.20068 -22.1921,85.59425 -92.19088,153.45014 -180.47251,174.94766 -20.66378,5.03185 -29.7565,6.04553 -57.49954,6.41026 -18.62491,0.24486 -29.47714,-0.084 -37.07914,-1.12376 z m 67.70974,-40.06796 C 516.28395,711.50418 584.6067,646.331 600.59283,562.90787 c 4.47748,-23.36564 4.83016,-34.7825 4.83016,-156.35661 0,-121.57413 -0.35268,-132.99099 -4.83016,-156.35662 -14.30861,-74.66909 -71.38235,-135.98509 -146.83351,-157.74761 -19.20249,-5.53861 -35.68025,-7.71317 -58.44668,-7.71317 -22.76643,0 -39.24419,2.17456 -58.44668,7.71317 -75.42934,21.75622 -132.52904,83.10014 -146.83351,157.74761 -4.47749,23.36563 -4.83016,34.78249 -4.83016,156.35662 0,121.57411 0.35267,132.99097 4.83016,156.35661 8.44608,44.0757 32.92698,85.83168 67.49153,115.11731 33.44518,28.3372 72.44923,44.90748 117.49345,49.91534 12.90035,1.43422 39.92877,0.43468 54.68746,-2.02238 z M 378.11652,554.94191 c -27.98105,-3.72686 -52.58022,-13.52106 -74.62877,-29.71357 -18.95294,-13.91906 -34.16759,-31.63275 -44.58811,-51.91178 -11.84541,-23.05198 -16.03404,-40.62944 -16.03404,-67.28624 0,-19.6184 1.81243,-31.27171 7.45387,-47.92577 6.62574,-19.55972 22.69308,-44.37423 38.23068,-59.04365 15.66279,-14.78762 39.34917,-28.91405 58.93576,-35.14898 17.29074,-5.50408 29.21199,-7.25301 49.43887,-7.25301 20.22687,0 32.14812,1.74893 49.43885,7.25301 21.39163,6.80951 47.13896,22.82604 62.55799,38.91519 20.90683,21.81543 33.2151,44.7963 39.65539,74.04094 3.44912,15.66198 3.44912,42.66257 0,58.32455 -6.44029,29.24463 -18.74856,52.22551 -39.65539,74.04094 -15.44447,16.11568 -40.85853,31.91404 -62.55799,38.88846 -19.81887,6.36997 -49.41803,9.32781 -68.24711,6.81991 z m 40.29171,-39.05472 c 40.13114,-7.37974 73.52262,-35.27223 87.42479,-73.02739 8.20184,-22.27436 8.19538,-51.48956 -0.0162,-73.65896 -14.04329,-37.91326 -47.22857,-65.63867 -87.4085,-73.02739 -11.30932,-2.07969 -31.65757,-2.07969 -42.9669,0 -46.20782,8.4972 -83.07632,44.23732 -91.84179,89.03092 -3.45952,17.67893 -1.64804,41.2374 4.43329,57.65543 13.8048,37.26942 45.6592,64.40141 85.24728,72.60932 11.75542,2.43729 33.07366,2.63478 45.12812,0.41807 z m -2.13781,-69.39262 c -13.89125,-13.7546 -26.82865,-26.91097 -28.74977,-29.2364 l -3.49297,-4.22805 v -42.04888 -42.04889 h 10.74758 10.74758 v 38.47604 38.47605 l 25.79419,25.47839 c 14.1868,14.01311 25.79418,25.95305 25.79418,26.53318 0,0.97665 -14.31112,13.87354 -15.19045,13.68933 -0.21644,-0.0453 -11.7591,-11.33619 -25.65034,-25.09077 z"
       id="path1" />
  </g>
</svg>
