<?xml version="1.0" encoding="UTF-8" standalone="no"?>
<!-- Created with Inkscape (http://www.inkscape.org/) -->

<svg
   version="1.1"
   id="svg1"
   width="461.04156"
   viewBox="0 0 461.04156 608"
   xmlns="http://www.w3.org/2000/svg">
  <defs
     id="defs1" />
  <g
     id="g1"
     transform="translate(-169.07588,-93.6)">
    <path
       d="m 169.11559,397.6 0.0397,-304 h 230.47807 230.47807 l 0.003,304 0.003,304 H 399.59703 169.07588 Z m 427.98627,129.12934 c 0.30931,-77.69886 0.30938,-199.37886 1.8e-4,-270.4 L 596.53984,127.2 H 569.46992 542.4 v 92.05259 c 0,61.92431 -0.27105,92.55905 -0.82815,93.6 -1.26952,2.37214 -3.45645,1.85379 -6.12861,-1.45259 -1.3335,-1.65 -7.38589,-9.12 -13.44974,-16.6 -6.06386,-7.48 -16.59064,-20.53 -23.39285,-29 -13.80155,-17.18547 -14.37034,-17.57136 -18.27717,-12.4 -1.24653,1.65 -13.18537,16.05 -26.53075,32 -15.91044,19.01568 -24.77592,29 -25.75027,29 -0.94744,0 -1.80422,-0.91302 -2.3642,-2.51938 -0.61778,-1.77218 -0.87826,-29.53216 -0.87826,-93.6 V 127.2 H 313.71783 202.63565 l -0.59072,123.66315 c -0.3249,68.01474 -0.32492,189.69474 -5e-5,270.4 L 202.63555,668 h 196.95197 196.95197 z"
       id="path1" />
  </g>
</svg>
